<?xml version="1.0" standalone="no"?>
<!DOCTYPE svg PUBLIC "-//W3C//DTD SVG 20010904//EN"
 "http://www.w3.org/TR/2001/REC-SVG-20010904/DTD/svg10.dtd">
<svg version="1.0" xmlns="http://www.w3.org/2000/svg"
 width="500.000000pt" height="500.000000pt" viewBox="0 0 500.000000 500.000000"
 preserveAspectRatio="xMidYMid meet">
<metadata>
Created by potrace 1.15, written by Peter Selinger 2001-2017
</metadata>
<g transform="translate(0.000000,500.000000) scale(0.100000,-0.100000)"
fill="#000000" stroke="none">
<path d="M481 3875 c-42 -36 -57 -86 -41 -139 10 -34 60 -89 298 -328 l285
-287 -283 -282 c-175 -175 -288 -296 -297 -317 -40 -97 56 -204 156 -173 37
11 168 137 564 537 184 187 196 206 171 280 -10 29 -93 118 -346 372 -183 183
-345 340 -360 348 -44 23 -112 18 -147 -11z"/>
<path d="M3930 2870 l0 -480 100 0 100 0 0 193 0 192 81 -150 c116 -216 127
-225 283 -233 l100 -5 -43 49 c-23 27 -84 122 -136 211 l-94 162 105 146 c57
80 104 148 104 152 0 13 -152 -6 -183 -24 -21 -12 -63 -65 -124 -158 l-93
-140 0 283 0 282 -100 0 -100 0 0 -480z"/>
<path d="M1700 2845 l0 -457 208 4 c180 4 214 8 261 26 110 43 158 125 149
253 -7 93 -39 141 -115 176 l-55 25 39 18 c75 34 113 101 113 198 0 87 -30
139 -104 177 l-58 29 -219 4 -219 4 0 -457z m367 311 c26 -23 28 -29 28 -100
0 -69 -2 -78 -27 -103 -24 -23 -38 -28 -98 -31 l-70 -4 0 131 0 131 69 0 c59
0 74 -4 98 -24z m-45 -356 c20 -6 49 -25 63 -42 25 -30 27 -37 23 -110 -3 -69
-6 -81 -31 -105 -24 -24 -36 -28 -102 -31 l-75 -4 0 151 0 151 43 0 c23 0 59
-5 79 -10z"/>
<path d="M2634 3110 c-39 -4 -80 -13 -92 -19 -32 -17 -62 -61 -62 -91 l0 -28
53 14 c63 17 177 18 210 3 35 -16 51 -52 52 -112 l0 -52 -96 -6 c-194 -13
-272 -68 -286 -203 -7 -66 10 -128 48 -171 75 -85 267 -78 353 14 l29 31 18
-39 c18 -41 65 -66 111 -59 l23 3 0 275 c0 270 0 276 -24 324 -29 58 -92 102
-160 111 -92 12 -107 12 -177 5z m164 -462 c-5 -98 -23 -133 -75 -147 -46 -13
-100 8 -107 41 -16 72 -10 113 24 147 32 32 50 37 119 40 l44 1 -5 -82z"/>
<path d="M3485 3110 c-57 -9 -110 -37 -144 -76 l-30 -33 -6 28 c-9 43 -47 73
-99 78 l-46 6 0 -362 0 -361 100 0 100 0 0 243 c0 133 5 258 10 278 6 20 22
49 37 63 22 23 34 26 71 24 36 -2 49 -9 66 -31 20 -27 21 -44 26 -273 l5 -244
27 -27 c23 -23 38 -28 93 -31 l66 -4 -3 299 -3 300 -28 42 c-43 65 -141 98
-242 81z"/>
</g>
</svg>
